<svg width="680" height="142" viewBox="0 0 680 142" fill="none" xmlns="http://www.w3.org/2000/svg">
<g clip-path="url(#clip0_8292_40728)">
<path d="M0 20.3328H33.636C44.848 20.3328 54.6016 22.4083 62.8836 26.5594C71.1657 30.7106 77.5465 36.6426 82.0131 44.3555C86.4796 52.0683 88.7064 61.1521 88.7064 71.594C88.7064 82.0358 86.4796 91.1196 82.0131 98.8325C77.5465 106.545 71.1657 112.477 62.8836 116.629C54.6016 120.78 44.848 122.855 33.636 122.855H0V20.3328ZM33.05 106.738C44.7569 106.738 53.8593 103.791 60.3704 97.8716C66.8684 91.9652 70.1239 83.2017 70.1239 71.5812C70.1239 59.9606 66.8684 51.1971 60.3704 45.2907C53.8723 39.3844 44.7569 36.4248 33.05 36.4248H18.6086V106.725H33.05V106.738Z" fill="#1D1D1F"/>
<path d="M101.221 20.3328H119.829V122.855H101.221V20.3328V20.3328Z" fill="#1D1D1F"/>
<path d="M151.981 120.216C146.03 117.487 141.211 113.63 137.539 108.647C133.867 103.663 131.783 97.91 131.289 91.3631L149.298 89.0184C149.897 95.1683 152.293 99.96 156.512 103.368C160.732 106.789 165.914 108.493 172.074 108.493C177.83 108.493 182.544 107.058 186.216 104.175C189.888 101.292 191.724 97.2182 191.724 91.9396C191.724 86.661 189.745 82.369 185.773 79.64C181.801 76.911 175.303 74.5664 166.279 72.6061C156.356 70.364 148.686 67.1097 143.282 62.8689C137.878 58.6153 135.169 52.6833 135.169 45.0729C135.169 39.7943 136.654 35.182 139.636 31.2359C142.618 27.2769 146.681 24.2276 151.837 22.088C156.994 19.9356 162.802 18.8594 169.248 18.8594C179.861 18.8594 188.325 21.4474 194.628 26.6235C200.931 31.7996 204.577 38.7822 205.567 47.5713L188.443 49.3266C187.752 44.1505 185.76 40.2171 182.491 37.5394C179.21 34.8617 174.756 33.5164 169.092 33.5164C164.326 33.5164 160.458 34.4901 157.476 36.4504C154.494 38.3978 153.009 40.9474 153.009 44.0608C153.009 48.071 154.924 51.0946 158.739 53.1446C162.555 55.1945 168.988 57.2957 178.012 59.4481C188.13 61.7927 196.021 65.4057 201.686 70.2872C207.338 75.1686 210.176 82.0487 210.176 90.9403C210.176 97.6794 208.483 103.56 205.111 108.583C201.738 113.618 197.089 117.5 191.19 120.229C185.291 122.958 178.715 124.329 171.462 124.329C164.208 124.329 157.919 122.958 151.955 120.229L151.981 120.216Z" fill="#1D1D1F"/>
<path d="M354.266 119.332C348.21 116.014 343.601 111.35 340.423 105.341C337.246 99.3322 335.657 92.4265 335.657 84.6111V20.3328H354.266V84.3292C354.266 91.9396 356.076 97.7819 359.696 101.831C363.316 105.879 368.707 107.903 375.843 107.903C382.979 107.903 388.37 105.879 391.991 101.831C395.611 97.7819 397.421 91.9396 397.421 84.3292V20.3328H416.029V84.6239C416.029 92.4393 414.441 99.345 411.263 105.354C408.086 111.363 403.476 116.026 397.421 119.345C391.366 122.663 384.177 124.329 375.83 124.329C367.483 124.329 360.295 122.676 354.253 119.345L354.266 119.332Z" fill="#1D1D1F"/>
<path d="M431.526 20.3328H450.134V122.855H431.526V20.3328Z" fill="#1D1D1F"/>
<path d="M465.604 20.3328H531.392V36.4376H484.2V63.5352H527.368V79.64H484.2V106.738H533.02V122.842H465.591V20.3328H465.604Z" fill="#1D1D1F"/>
<path d="M567.867 36.4376H541.523V20.3328H612.819V36.4376H586.475V122.855H567.867V36.4376V36.4376Z" fill="#1D1D1F"/>
<path d="M317.504 95.8345C321.281 88.1729 323.156 80.0884 323.156 71.594C323.156 61.3443 320.851 52.2093 316.228 44.2017C311.618 36.1941 305.303 29.9675 297.32 25.5345C296.239 24.9323 295.132 24.3814 294.026 23.8561C287.658 20.7684 280.339 19.0387 272.292 18.885C271.758 18.885 271.237 18.8594 270.703 18.8594C270.338 18.8594 270 18.8594 269.648 18.8594C260.142 18.9747 251.482 21.1912 243.734 25.5089C235.752 29.9547 229.449 36.1813 224.826 44.1761C220.216 52.1837 217.898 61.3059 217.898 71.5684C217.898 81.0365 219.839 89.5309 223.706 97.0516C227.574 104.572 232.939 110.645 239.789 115.283C245.896 119.409 252.693 122.099 260.207 123.316C256.756 126.404 254.061 130.337 252.381 134.745L252.042 135.603H263.723L263.853 135.155C264.218 133.989 264.947 132.567 266.041 131.222C268.151 128.608 271.615 126.238 276.289 126.238C279.545 126.238 282.345 126.878 284.871 128.326C285.991 128.967 287.059 129.748 288.087 130.722C290.588 133.041 292.906 136.372 295.211 140.856L295.38 141.202H315.16L314.574 140.254C308.428 130.056 301.683 123.316 293.986 119.768C296.825 118.448 299.573 116.782 302.229 114.732C308.636 109.8 313.715 103.509 317.491 95.8345H317.504ZM252.68 103.304C248.123 100.562 244.49 96.8723 241.807 92.2343C241.468 91.6577 241.156 91.0812 240.856 90.4918C238.083 85.0211 236.689 78.7303 236.689 71.594C236.689 64.4576 238.083 58.1669 240.856 52.6961C241.182 52.0555 241.521 51.4277 241.885 50.8128C244.568 46.2388 248.175 42.5874 252.693 39.8712C257.798 36.7963 263.723 35.2589 270.482 35.2589C277.24 35.2589 283.165 36.7963 288.27 39.8712C293.374 42.9461 297.32 47.2126 300.107 52.6833C300.524 53.5289 300.927 54.3745 301.279 55.2586C303.258 60.1015 304.274 65.5467 304.274 71.5812C304.274 77.0648 303.441 82.0359 301.8 86.5329C301.318 87.9038 300.745 89.2106 300.107 90.479C297.333 95.9498 293.387 100.216 288.27 103.291C283.152 106.366 277.227 107.903 270.482 107.903C263.736 107.903 257.798 106.366 252.693 103.291L252.68 103.304Z" fill="#1D1D1F"/>
<path d="M679.284 20.6147L680 20.3456L673.072 8.7891L672.682 8.17412L655.727 21.2168L658.67 0.743102L658.774 0H644.163L647.223 21.2168L630.269 8.17412L622.95 20.3456L643.226 28.3916L623.653 36.1558L622.95 36.4248L629.878 47.9813L630.269 48.5963L647.223 35.5536L644.28 56.0401L644.163 56.7704H658.774L655.727 35.5536L672.682 48.5963L680 36.4248L659.725 28.3916L679.284 20.6147Z" fill="#1D1D1F"/>
</g>
<defs>
<clipPath id="clip0_8292_40728">
<rect width="680" height="141.202" fill="white"/>
</clipPath>
</defs>
</svg>
