<svg width="1000" height="265" viewBox="0 0 1000 265" fill="none" xmlns="http://www.w3.org/2000/svg">
<path d="M52.7666 211H77.915V99.6748H90.8145L62.3057 58.917L123.876 211H142.846L204.416 58.917L175.907 99.6748H188.807V211H213.955V54.5811H181.652L133.74 174.145H132.981L85.0693 54.5811H52.7666V211ZM269.997 212.951C275.056 212.951 279.789 212.156 284.197 210.566C288.678 208.977 292.652 206.7 296.121 203.737C299.59 200.774 302.408 197.306 304.576 193.331H305.227V211H332.109V131.978C332.109 124.245 330.158 117.524 326.256 111.815C322.426 106.106 316.97 101.662 309.888 98.4824C302.878 95.3027 294.567 93.7129 284.956 93.7129C275.272 93.7129 266.89 95.2666 259.808 98.374C252.798 101.481 247.306 105.745 243.331 111.165C239.356 116.513 237.08 122.583 236.502 129.376L236.394 130.677H261.325L261.542 129.701C262.481 125.438 264.866 121.969 268.696 119.295C272.526 116.549 277.621 115.176 283.98 115.176C290.846 115.176 296.085 116.874 299.698 120.271C303.384 123.595 305.227 128.147 305.227 133.929V168.399C305.227 172.952 304.034 177.035 301.649 180.648C299.265 184.262 296.013 187.116 291.894 189.212C287.847 191.308 283.222 192.355 278.019 192.355C272.093 192.355 267.323 191.019 263.71 188.345C260.169 185.599 258.398 181.877 258.398 177.18V177.071C258.398 172.519 260.169 168.869 263.71 166.123C267.251 163.377 272.346 161.787 278.994 161.354L319.102 158.86V140.975L275.2 143.685C265.95 144.263 258.073 145.997 251.569 148.888C245.065 151.706 240.079 155.572 236.61 160.486C233.214 165.328 231.516 171.182 231.516 178.047V178.264C231.516 185.057 233.105 191.091 236.285 196.366C239.537 201.569 244.054 205.652 249.835 208.615C255.688 211.506 262.409 212.951 269.997 212.951ZM355.198 211H382.081V54.5811H355.198V211ZM427.608 211H458.719L406.362 138.807L389.127 158.752L427.608 211ZM378.179 175.229L398.232 154.308H403.219L456.768 96.0977H425.657L382.731 143.793H378.179V175.229ZM514.219 213.276C521.662 213.276 528.311 212.301 534.164 210.35C540.018 208.326 545.076 205.616 549.34 202.22C553.604 198.823 557 195.029 559.529 190.838C562.059 186.574 563.793 182.238 564.732 177.83L564.949 176.638H539.801L539.584 177.396C538.717 179.998 537.163 182.419 534.923 184.659C532.755 186.899 529.973 188.742 526.576 190.188C523.18 191.561 519.241 192.247 514.761 192.247C508.763 192.247 503.596 190.946 499.26 188.345C494.924 185.671 491.563 181.877 489.179 176.963C486.866 171.977 485.71 165.979 485.71 158.969V148.562C485.71 141.336 486.866 135.193 489.179 130.135C491.563 125.076 494.815 121.282 498.935 118.753C503.126 116.151 507.896 114.851 513.243 114.851C518.519 114.851 523.18 116.115 527.227 118.645C531.273 121.102 534.453 124.823 536.766 129.81C539.078 134.796 540.234 141.047 540.234 148.562V158.969L553.242 142.167H472.269V160.161H566.142V151.489C566.142 139.927 563.974 129.81 559.638 121.138C555.374 112.466 549.231 105.745 541.21 100.976C533.261 96.1338 523.83 93.7129 512.918 93.7129C501.934 93.7129 492.395 96.2061 484.301 101.192C476.279 106.179 470.028 113.188 465.548 122.222C461.14 131.183 458.936 141.697 458.936 153.766V153.874C458.936 166.015 461.14 176.529 465.548 185.418C469.956 194.307 476.279 201.172 484.518 206.014C492.828 210.855 502.729 213.276 514.219 213.276ZM583.377 211H610.26V144.335C610.26 138.626 611.235 133.784 613.187 129.81C615.138 125.835 617.956 122.836 621.642 120.812C625.327 118.717 629.699 117.669 634.758 117.669C637.07 117.669 639.202 117.813 641.153 118.103C643.177 118.392 644.73 118.753 645.814 119.187V94.7969C644.803 94.5078 643.538 94.2549 642.021 94.0381C640.503 93.8213 638.913 93.7129 637.251 93.7129C630.603 93.7129 624.966 95.7002 620.341 99.6748C615.788 103.577 612.645 108.997 610.91 115.935H610.26V96.0977H583.377V211ZM733.509 162.329L764.836 125.257H769.172L828.357 54.5811H796.38L735.677 128.075H733.509V162.329ZM707.06 211H735.026V54.5811H707.06V211ZM799.09 211H833.019L766.57 118.103L746.517 136.747L799.09 211ZM845.81 211H872.801V96.0977H845.81V211ZM859.251 79.6211C863.515 79.6211 867.092 78.1758 869.982 75.2852C872.873 72.3945 874.318 68.9258 874.318 64.8789C874.318 60.7598 872.873 57.291 869.982 54.4727C867.092 51.582 863.515 50.1367 859.251 50.1367C855.06 50.1367 851.519 51.582 848.628 54.4727C845.737 57.291 844.292 60.7598 844.292 64.8789C844.292 68.9258 845.737 72.3945 848.628 75.2852C851.519 78.1758 855.06 79.6211 859.251 79.6211ZM938.382 213.276C941.2 213.276 943.729 213.168 945.97 212.951C948.282 212.734 950.233 212.518 951.823 212.301V192.03C950.884 192.103 949.872 192.211 948.788 192.355C947.776 192.428 946.584 192.464 945.211 192.464C940.369 192.464 936.684 191.416 934.154 189.32C931.697 187.152 930.469 183.286 930.469 177.722V116.91H951.823V96.0977H930.469V66.9385H903.044V96.0977H886.784V116.91H903.044V179.89C903.044 191.741 905.935 200.269 911.716 205.472C917.569 210.675 926.458 213.276 938.382 213.276Z" fill="white"/>
</svg>
