<svg width="316" height="99" viewBox="0 0 316 99" fill="none" xmlns="http://www.w3.org/2000/svg">
<path d="M21.464 44.768C34.008 44.768 42.264 35.872 42.264 22.752C42.264 9.632 34.072 0.735996 21.784 0.735996C9.24 0.735996 0.984 9.632 0.984 22.752C0.984 35.872 9.176 44.768 21.464 44.768ZM21.528 39.008C12.952 39.008 7.64 32.864 7.64 22.88V22.56C7.64 12.512 13.08 6.496 21.72 6.496C30.296 6.496 35.608 12.64 35.608 22.56V22.88C35.608 32.992 30.168 39.008 21.528 39.008ZM47.328 55.904H53.536V39.648C55.648 42.72 59.04 44.64 63.2 44.64C71.008 44.64 76.832 38.496 76.832 28.768V28.704C76.832 19.04 71.008 13.152 63.264 13.152C59.04 13.152 55.584 15.072 53.472 18.272V13.792H47.328V55.904ZM61.664 39.264C56.352 39.264 53.152 35.232 53.152 29.28V28.768C53.152 22.752 56.416 18.528 61.664 18.528C66.848 18.528 70.24 22.048 70.24 28.512V28.96C70.24 35.488 66.784 39.264 61.664 39.264ZM95.0775 44.512C102.822 44.512 107.11 40.8 109.158 36.128L103.59 33.952C102.438 36.896 100.198 39.392 95.0775 39.392C89.9575 39.392 86.6935 36.256 86.3095 31.072H109.03V28.768C109.03 19.232 103.718 13.28 94.8215 13.28C86.2455 13.28 80.0375 19.744 80.0375 29.088C80.0375 38.368 85.7975 44.512 95.0775 44.512ZM86.1815 26.336C86.8215 21.408 90.1495 18.4 94.6935 18.4C99.4295 18.4 102.31 21.152 102.566 26.336H86.1815ZM114.078 44H120.35V29.536C120.35 22.624 123.038 18.72 127.71 18.72C131.806 18.72 133.79 21.216 133.79 25.952V44H140.126V25.632C140.126 17.568 136.158 13.152 129.63 13.152C125.022 13.152 121.95 15.456 120.35 19.488V13.792H114.078V44ZM177.839 44.768C190.383 44.768 198.639 35.872 198.639 22.752C198.639 9.632 190.447 0.735996 178.159 0.735996C165.615 0.735996 157.359 9.632 157.359 22.752C157.359 35.872 165.551 44.768 177.839 44.768ZM177.903 39.008C169.327 39.008 164.015 32.864 164.015 22.88V22.56C164.015 12.512 169.455 6.496 178.095 6.496C186.671 6.496 191.983 12.64 191.983 22.56V22.88C191.983 32.992 186.543 39.008 177.903 39.008ZM206.768 44H212.976V19.168H219.12V13.792H212.976V11.168C212.976 6.88 213.488 6.56 217.52 6.56H219.824V0.799999H214.96C208.752 1.184 206.768 3.744 206.768 10.72V13.792H201.712V19.168H206.768V44ZM226.768 44H232.976V19.168H239.12V13.792H232.976V11.168C232.976 6.88 233.488 6.56 237.52 6.56H239.824V0.799999H234.96C228.752 1.184 226.768 3.744 226.768 10.72V13.792H221.712V19.168H226.768V44ZM243.199 8.928H249.983V2.272H243.199V8.928ZM243.391 44H249.727V13.792H243.391V44ZM269.509 44.512C276.869 44.512 281.413 40.608 283.397 34.464L277.381 32.608C276.357 36.704 274.245 39.2 269.381 39.2C264.133 39.2 261.061 34.976 261.061 29.024V28.768C261.061 22.752 264.325 18.592 269.573 18.592C273.925 18.592 276.101 21.024 277.125 24.864L283.141 23.008C281.285 17.12 276.805 13.28 269.701 13.28C260.869 13.28 254.725 19.808 254.725 28.832C254.725 38.048 260.485 44.512 269.509 44.512ZM300.953 44.512C308.697 44.512 312.985 40.8 315.033 36.128L309.465 33.952C308.313 36.896 306.073 39.392 300.953 39.392C295.833 39.392 292.569 36.256 292.185 31.072H314.905V28.768C314.905 19.232 309.593 13.28 300.697 13.28C292.121 13.28 285.913 19.744 285.913 29.088C285.913 38.368 291.673 44.512 300.953 44.512ZM292.057 26.336C292.697 21.408 296.025 18.4 300.569 18.4C305.305 18.4 308.185 21.152 308.441 26.336H292.057ZM2.52 98H8.92V79.248H30.424V98H36.824V55.504H30.424V73.552H8.92V55.504H2.52V98ZM56.7025 98.512C65.5985 98.512 71.9345 92.048 71.9345 82.96C71.9345 73.744 65.7265 67.28 56.8305 67.28C47.9345 67.28 41.6625 73.744 41.6625 82.96C41.6625 92.176 47.8065 98.512 56.7025 98.512ZM56.7025 93.2C51.3265 93.2 47.9985 89.36 47.9985 83.152V82.896C47.9985 76.56 51.4545 72.592 56.8305 72.592C62.2065 72.592 65.5985 76.56 65.5985 82.896V83.152C65.5985 89.296 62.1425 93.2 56.7025 93.2ZM87.132 98.512C91.484 98.512 94.428 96.528 96.092 92.816V98H102.364V67.792H96.092V82.256C96.092 88.784 93.788 93.072 88.796 93.072C84.7 93.072 82.652 90.512 82.652 85.84V67.792H76.316V86.16C76.316 93.84 80.348 98.512 87.132 98.512ZM109.016 98H115.288V82.512C115.288 76.368 116.76 73.68 122.135 73.68H125.016V67.536H124.056C118.552 67.536 116.184 69.84 115.288 73.36V67.792H109.016V98ZM140.283 98.832C147.131 98.832 152.059 94.736 152.059 89.168C152.059 83.216 146.363 81.232 140.859 80.144C135.355 79.056 133.307 78.608 133.307 76.112C133.307 73.808 135.419 72.272 138.683 72.272C141.819 72.272 144.571 73.68 146.299 76.304L151.739 73.616C148.795 69.712 144.378 67.152 138.683 67.152C132.283 67.152 127.291 71.184 127.291 76.496C127.291 82.32 132.219 84.24 137.723 85.392C142.458 86.416 145.979 86.992 145.979 89.616C145.979 92.112 143.931 93.648 140.539 93.648C137.339 93.648 134.203 92.304 132.347 89.616L126.907 92.496C129.659 96.336 134.459 98.832 140.283 98.832Z" fill="black"/>
</svg>
